# xmcd
#
# Track frame offsets:
#	150
#	18047
#	32632
#	52036
#	66996
#	85464
#	97217
#
# Disc length: 1590 seconds
# Revision: 0
# Processed by: cddbd v1.5.2PL0 Copyright (c) Steve Scherf et al.
# Submitted via: dBpowerAMP V12.0
#
DISCID=5a063407
DTITLE=Chich and the Soul Messengers - Dirty Soul
DYEAR=2015
DGENRE=Soul
TTITLE0=Wake up                            
TTITLE1=I Wish You                         
TTITLE2=Stand Proud
TTITLE3=Revolutionaries 
TTITLE4=If Loving You
TTITLE5=Who Are You                  
TTITLE6=Stormy Monday
EXTD=
EXTT0=
EXTT1=
EXTT2=
EXTT3=
EXTT4=
EXTT5=
EXTT6=
PLAYORDER=
